# xmcd
#
# Track frame offsets: 
#        150
#        13930
#        28312
#        43495
#        56200
#        71292
#        92137
#        109235
#        121050
#        138340
#
# Disc length: 2060 seconds
#
# Revision: 15
# Processed by: cddbd v1.5.2PL0 Copyright (c) Steve Scherf et al.
# Submitted via: ExactAudioCopy v0.99pb4
#
DISCID=92080a0a
DTITLE=Waylon Jennings, Willie Nelson, Johnny Cash, Kris Kristofferson
DTITLE=Various Artist - Highwayman
DYEAR=1985
DGENRE=Country
TTITLE0=Highwayman
TTITLE1=The Last Cowboy Song
TTITLE2=Jim, I Wore A Tie Today
TTITLE3=Big River
TTITLE4=Committed To Parkview
TTITLE5=Desperados Waiting For A Train
TTITLE6=Deportee (Plane Wreck At Los Gatos)
TTITLE7=Welfare Line
TTITLE8=Against The Wind
TTITLE9=The Twentieth Century Is Almost Over
EXTD=YEAR: 1985\nWaylon Jennings, Willie Nelson, Johnny Cash, Kris Kri
EXTD=stofferson\nCBS  463159 2
EXTT0=
EXTT1=
EXTT2=
EXTT3=
EXTT4=
EXTT5=
EXTT6=
EXTT7=
EXTT8=
EXTT9=
PLAYORDER=
